<svg xmlns="http://www.w3.org/2000/svg" width="99.846" height="44.933" viewBox="0 0 99.846 44.933">
  <g id="Group_32149" data-name="Group 32149" transform="translate(-373.215 -484.157)">
    <path id="Union_25" data-name="Union 25" d="M59.843,20.608a12,12,0,0,1-3-8.253,12.77,12.77,0,0,1,3.18-8.745A10.732,10.732,0,0,1,68.505,0a9.442,9.442,0,0,1,5.361,1.511A4.521,4.521,0,0,1,76.133,5.4a3.078,3.078,0,0,1-.9,2.206,3.276,3.276,0,0,1-3.923.5,2.941,2.941,0,0,1-1.32-2.782c0-.145.008-.357.024-.637s.024-.579.024-.9a2.174,2.174,0,0,0-.6-1.776,2.255,2.255,0,0,0-1.414-.479,3.349,3.349,0,0,0-3.24,2.506,16.025,16.025,0,0,0-.959,5.746,15.1,15.1,0,0,0,1.824,7.726,5.519,5.519,0,0,0,4.918,3.119,6.07,6.07,0,0,0,3.311-.864,10.173,10.173,0,0,0,2.015-1.848l.913.84a12.539,12.539,0,0,1-5.615,4.582,10.079,10.079,0,0,1-3.623.648A9.858,9.858,0,0,1,59.843,20.608ZM45.1,23.991V22.3A3.7,3.7,0,0,0,47,21.638a2.977,2.977,0,0,0,.532-2.146V7.467a6.459,6.459,0,0,0-.57-3.006A2.228,2.228,0,0,0,44.79,3.393a4.326,4.326,0,0,0-2.7,1.177q-1.417,1.175-1.419,1.636V19.492a3.029,3.029,0,0,0,.486,2.086,3.789,3.789,0,0,0,1.817.727v1.687H31.356V22.3a3.652,3.652,0,0,0,1.868-.642,2.929,2.929,0,0,0,.556-2.17V7.467a6.9,6.9,0,0,0-.532-2.982,2.209,2.209,0,0,0-2.206-1.093A4.049,4.049,0,0,0,28.2,4.642Q26.9,5.89,26.9,6.206V19.492a3.15,3.15,0,0,0,.461,2.086,3.647,3.647,0,0,0,1.817.727v1.687H17.294V22.3a3.854,3.854,0,0,0,1.866-.582,2.953,2.953,0,0,0,.824-2.424V4.7a3.009,3.009,0,0,0-.556-2.11,3.711,3.711,0,0,0-2.134-.751V.048H26.7V4.193a13.5,13.5,0,0,1,2.4-2.521A7.785,7.785,0,0,1,33.9.048a6.931,6.931,0,0,1,4.63,1.4,7.629,7.629,0,0,1,1.745,2.619h.34a13.269,13.269,0,0,1,2.69-2.6A7.568,7.568,0,0,1,47.747.048a6.982,6.982,0,0,1,4.618,1.673q2,1.674,2,5.285V19.492q0,1.721.556,2.194a3.7,3.7,0,0,0,1.964.618v1.687Zm-45.1,0V22.3A7.645,7.645,0,0,0,3.031,21.8a3.151,3.151,0,0,0,1.5-3.055V5.748C4.534,4.278,4.058,2.9,3.1,2.4A8.037,8.037,0,0,0,0,1.842V.048H15.981V1.842a8.774,8.774,0,0,0-3.2.534c-.969.5-1.455,1.886-1.455,3.372V18.74A3.13,3.13,0,0,0,12.491,21.6a6.874,6.874,0,0,0,3.49.7v1.687Z" transform="translate(373.215 505.099)" fill="#010101"/>
    <g id="Group_32148" data-name="Group 32148" transform="translate(450.584 484.123) rotate(45)">
      <path id="Path_339449" data-name="Path 339449" d="M16.054,0l6.534,6.534L0,16.054Z" transform="translate(0 0.048)" fill="#727272"/>
      <path id="Path_338788" data-name="Path 338788" d="M6.3,0,0,6.3l21.981,9.373Z" transform="translate(9.807 0)" fill="#afafaf"/>
    </g>
  </g>
</svg>
